<?xml version="1.0" encoding="UTF-8" standalone="no"?>
<!-- Created with Inkscape (http://www.inkscape.org/) -->

<svg
   xmlns:dc="http://purl.org/dc/elements/1.1/"
   xmlns:cc="http://creativecommons.org/ns#"
   xmlns:rdf="http://www.w3.org/1999/02/22-rdf-syntax-ns#"
   xmlns:svg="http://www.w3.org/2000/svg"
   xmlns="http://www.w3.org/2000/svg"
   xmlns:sodipodi="http://sodipodi.sourceforge.net/DTD/sodipodi-0.dtd"
   xmlns:inkscape="http://www.inkscape.org/namespaces/inkscape"
   width="500"
   height="46.22049"
   id="svg2"
   version="1.1"
   inkscape:version="0.48.4 r9939"
   sodipodi:docname="New document 1">
  <defs
     id="defs4" />
  <sodipodi:namedview
     id="base"
     pagecolor="#ffffff"
     bordercolor="#666666"
     borderopacity="1.0"
     inkscape:pageopacity="0.0"
     inkscape:pageshadow="2"
     inkscape:zoom="1.979899"
     inkscape:cx="325.91479"
     inkscape:cy="-116.45673"
     inkscape:document-units="px"
     inkscape:current-layer="layer1"
     showgrid="false"
     fit-margin-top="0"
     fit-margin-left="0"
     fit-margin-right="0"
     fit-margin-bottom="0"
     inkscape:window-width="1920"
     inkscape:window-height="1055"
     inkscape:window-x="0"
     inkscape:window-y="25"
     inkscape:window-maximized="0" />
  <metadata
     id="metadata7">
    <rdf:RDF>
      <cc:Work
         rdf:about="">
        <dc:format>image/svg+xml</dc:format>
        <dc:type
           rdf:resource="http://purl.org/dc/dcmitype/StillImage" />
        <dc:title></dc:title>
      </cc:Work>
    </rdf:RDF>
  </metadata>
  <g
     inkscape:label="Layer 1"
     inkscape:groupmode="layer"
     id="layer1"
     transform="translate(-23.761758,-40.473117)">
    <g
       transform="matrix(0.59871102,0,0,-0.59871102,-92.649218,300.27658)"
       inkscape:label="ink_ext_XXXXXX"
       id="g3012">
      <g
         transform="scale(0.1,0.1)"
         id="g3014">
        <path
           id="path3016"
           style="fill:#100f0d;fill-opacity:1;fill-rule:nonzero;stroke:none"
           d="m 2099.82,3795.74 111.47,0 c 86.05,0 129.07,28.36 129.07,83.11 0,53.77 -45.96,83.11 -135.91,83.11 l -104.63,0 0,-166.22 z m 0,400.89 0,-154.5 97.78,0 c 73.33,0 111.47,27.39 111.47,77.25 0,50.85 -39.11,77.25 -112.44,77.25 l -96.81,0 z m -155.46,-484.01 0,83.12 65.51,0 0,400.89 -65.51,0 0,83.11 262.04,0 c 120.27,0 193.61,-55.73 193.61,-152.54 0,-63.55 -37.16,-102.66 -84.1,-121.24 67.47,-18.58 115.38,-66.49 115.38,-132 0,-103.64 -80.17,-161.34 -211.2,-161.34 l -275.73,0"
           inkscape:connector-curvature="0" />
        <path
           id="path3018"
           style="fill:#100f0d;fill-opacity:1;fill-rule:nonzero;stroke:none"
           d="m 2906.52,4007.92 c -9.79,33.24 -34.23,52.8 -66.5,52.8 -75.28,0 -146.67,-55.73 -146.67,-157.42 l 0,-107.56 144.72,0 0,-83.12 -322.66,0 0,83.12 91.9,0 0,250.31 -72.35,0 0,83.12 157.42,0 0,-70.4 c 26.4,48.88 80.18,84.08 151.56,84.08 80.18,0 130.04,-45.96 144.71,-111.47 l -82.13,-23.46"
           inkscape:connector-curvature="0" />
        <path
           id="path3020"
           style="fill:#100f0d;fill-opacity:1;fill-rule:nonzero;stroke:none"
           d="m 3346.54,3880.81 c -27.38,9.77 -68.45,17.59 -106.58,17.59 -54.76,0 -107.56,-17.59 -107.56,-67.47 0,-37.15 33.24,-54.75 79.2,-54.75 63.55,0 134.94,34.23 134.94,92.89 l 0,11.74 z m 0,74.3 0,23.47 c 0,58.67 -46.94,83.11 -97.78,83.11 -47.91,0 -88.98,-19.56 -122.23,-49.86 l -56.71,61.59 c 39.11,36.19 94.84,69.43 178.94,69.43 104.61,0 185.78,-55.74 185.78,-161.33 l 0,-185.78 60.62,0 0,-83.12 -148.62,0 0,44.01 c -22.49,-36.19 -83.12,-57.69 -142.77,-57.69 -86.04,0 -160.35,44 -160.35,131.02 0,102.66 100.72,141.77 192.62,141.77 44.98,0 82.14,-8.79 110.5,-16.62"
           inkscape:connector-curvature="0" />
        <path
           id="path3022"
           style="fill:#100f0d;fill-opacity:1;fill-rule:nonzero;stroke:none"
           d="m 3856.96,4212.27 -96.8,0 0,127.11 96.8,0 0,-127.11 z m 160.36,-416.53 0,-83.12 -420.45,0 0,83.12 174.04,0 0,250.31 -132.98,0 0,83.12 219.03,0 0,-333.43 160.36,0"
           inkscape:connector-curvature="0" />
        <path
           id="path3024"
           style="fill:#100f0d;fill-opacity:1;fill-rule:nonzero;stroke:none"
           d="m 4120.98,3795.74 63.56,0 0,250.31 -59.65,0 0,83.12 144.71,0 0,-53.78 c 25.42,41.06 78.23,67.46 142.76,67.46 92.89,0 159.38,-58.66 159.38,-153.51 l 0,-193.6 63.56,0 0,-83.12 -216.1,0 0,83.12 66.5,0 0,170.13 c 0,72.36 -44.01,92.9 -84.09,92.9 -65.52,0 -131.03,-48.9 -131.03,-124.18 l 0,-138.85 66.5,0 0,-83.12 -216.1,0 0,83.12"
           inkscape:connector-curvature="0" />
        <path
           id="path3026"
           style="fill:#100f0d;fill-opacity:1;fill-rule:nonzero;stroke:none"
           d="m 4753.63,4046.05 -108.54,0 0,83.12 108.54,0 0,150.57 86.04,0 0,-150.57 202.41,0 0,-83.12 -202.41,0 0,-175.02 c 0,-64.54 44.98,-90.94 96.8,-90.94 48.89,0 89.96,27.38 120.27,57.69 l 57.69,-59.64 c -38.14,-41.07 -96.8,-79.2 -177.96,-79.2 -104.62,0 -182.84,57.69 -182.84,169.15 l 0,177.96"
           inkscape:connector-curvature="0" />
        <path
           id="path3028"
           style="fill:#100f0d;fill-opacity:1;fill-rule:nonzero;stroke:none"
           d="m 5583.78,4007.92 c -9.78,33.24 -34.22,52.8 -66.49,52.8 -75.28,0 -146.67,-55.73 -146.67,-157.42 l 0,-107.56 144.72,0 0,-83.12 -322.67,0 0,83.12 91.91,0 0,250.31 -72.36,0 0,83.12 157.42,0 0,-70.4 c 26.41,48.88 80.19,84.08 151.57,84.08 80.17,0 130.04,-45.96 144.7,-111.47 l -82.13,-23.46"
           inkscape:connector-curvature="0" />
        <path
           id="path3030"
           style="fill:#100f0d;fill-opacity:1;fill-rule:nonzero;stroke:none"
           d="m 5815.53,3963.91 256.18,0 c -12.71,59.65 -65.51,99.74 -124.18,99.74 -66.49,0 -117.33,-41.07 -132,-99.74 z m 347.11,-187.73 c -43.02,-44.97 -119.29,-77.24 -204.35,-77.24 -139.83,0 -237.6,93.87 -237.6,221.95 0,128.09 94.84,221.96 226.84,221.96 131.03,0 222.93,-100.72 222.93,-237.6 l 0,-14.67 -358.83,0 c 14.65,-69.42 72.35,-111.46 147.63,-111.46 62.58,0 116.36,25.42 145.7,57.68 l 57.68,-60.62"
           inkscape:connector-curvature="0" />
        <path
           id="path3032"
           style="fill:#100f0d;fill-opacity:1;fill-rule:nonzero;stroke:none"
           d="m 6350.41,3963.91 256.17,0 c -12.71,59.65 -65.51,99.74 -124.18,99.74 -66.49,0 -117.34,-41.07 -131.99,-99.74 z m 347.1,-187.73 c -43.02,-44.97 -119.28,-77.24 -204.35,-77.24 -139.83,0 -237.61,93.87 -237.61,221.95 0,128.09 94.86,221.96 226.85,221.96 131.02,0 222.94,-100.72 222.94,-237.6 l 0,-14.67 -358.85,0 c 14.67,-69.42 72.35,-111.46 147.65,-111.46 62.57,0 116.35,25.42 145.69,57.68 l 57.68,-60.62"
           inkscape:connector-curvature="0" />
        <path
           id="path3034"
           style="fill:#100f0d;fill-opacity:1;fill-rule:nonzero;stroke:none"
           d="m 6842.25,3580.62 395.02,0 0,83.1172 -395.02,0 0,-83.1172 z"
           inkscape:connector-curvature="0" />
        <path
           id="path3036"
           style="fill:#459adb;fill-opacity:1;fill-rule:nonzero;stroke:none"
           d="m 9356.68,4336.73 -224.57,0 c -15.38,0 -28.46,-11.15 -30.83,-26.37 l -90.82,-575.85 c -1.8,-11.35 7.02,-21.61 18.47,-21.61 l 115.23,0 c 10.76,0 19.91,7.83 21.58,18.41 l 25.77,163.28 c 2.36,15.18 15.45,26.33 30.79,26.33 l 71.09,0 c 147.92,0 233.29,71.59 255.59,213.48 10.06,62.06 0.44,110.81 -28.63,144.93 -31.93,37.52 -88.53,57.4 -163.67,57.4 m 25.9,-210.32 c -12.25,-80.64 -73.81,-80.64 -133.41,-80.64 l -33.86,0 23.78,150.53 c 1.43,9.09 9.28,15.78 18.47,15.78 l 15.55,0 c 40.55,0 78.81,0 98.55,-23.07 11.82,-13.82 15.38,-34.33 10.92,-62.6"
           inkscape:connector-curvature="0" />
        <path
           id="path3038"
           style="fill:#293b82;fill-opacity:1;fill-rule:nonzero;stroke:none"
           d="m 7754.88,4336.73 -224.57,0 c -15.38,0 -28.43,-11.15 -30.83,-26.37 l -90.79,-575.85 c -1.83,-11.35 6.96,-21.61 18.44,-21.61 l 107.24,0 c 15.35,0 28.4,11.19 30.83,26.3 l 24.54,155.39 c 2.37,15.18 15.45,26.33 30.8,26.33 l 71.05,0 c 147.92,0 233.32,71.59 255.6,213.48 10.08,62.06 0.43,110.81 -28.6,144.93 -31.97,37.52 -88.57,57.4 -163.71,57.4 m 25.94,-210.32 c -12.29,-80.64 -73.85,-80.64 -133.41,-80.64 l -33.9,0 23.78,150.53 c 1.43,9.09 9.28,15.78 18.47,15.78 l 15.55,0 c 40.55,0 78.81,0 98.59,-23.07 11.82,-13.82 15.38,-34.33 10.92,-62.6"
           inkscape:connector-curvature="0" />
        <path
           id="path3040"
           style="fill:#293b82;fill-opacity:1;fill-rule:nonzero;stroke:none"
           d="m 8426.14,4128.98 -107.54,0 c -9.22,0 -17.08,-6.69 -18.51,-15.81 l -4.73,-30.03 -7.49,10.85 c -23.31,33.8 -75.21,45.11 -127.05,45.11 -118.83,0 -220.27,-90.02 -240.05,-216.31 -10.25,-62.99 4.33,-123.22 40.05,-165.2 32.8,-38.62 79.64,-54.67 135.41,-54.67 95.79,0 148.89,61.49 148.89,61.49 l -4.79,-29.89 c -1.8,-11.32 6.96,-21.61 18.51,-21.61 l 96.82,0 c 15.38,0 28.43,11.12 30.83,26.3 l 58.16,368.13 c 1.77,11.36 -7.02,21.64 -18.51,21.64 m -149.86,-209.32 c -10.42,-61.42 -59.16,-102.71 -121.39,-102.71 -31.19,0 -56.16,10.06 -72.21,29.04 -15.91,18.84 -21.91,45.67 -16.88,75.54 9.69,60.93 59.26,103.48 120.52,103.48 30.53,0 55.34,-10.12 71.72,-29.3 16.45,-19.31 22.94,-46.31 18.24,-76.05"
           inkscape:connector-curvature="0" />
        <path
           id="path3042"
           style="fill:#459adb;fill-opacity:1;fill-rule:nonzero;stroke:none"
           d="m 10027.9,4128.98 -107.52,0 c -9.19,0 -17.04,-6.69 -18.51,-15.81 l -4.69,-30.03 -7.53,10.85 c -23.3,33.8 -75.21,45.11 -127.05,45.11 -118.79,0 -220.27,-90.02 -240.05,-216.31 -10.25,-62.99 4.33,-123.22 40.06,-165.2 32.82,-38.62 79.63,-54.67 135.44,-54.67 95.78,0 148.85,61.49 148.85,61.49 l -4.79,-29.89 c -1.8,-11.32 6.99,-21.61 18.51,-21.61 l 96.82,0 c 15.38,0 28.43,11.12 30.86,26.3 l 58.1,368.13 c 1.8,11.36 -7,21.64 -18.5,21.64 m -149.83,-209.32 c -10.39,-61.42 -59.17,-102.71 -121.39,-102.71 -31.2,0 -56.17,10.06 -72.22,29.04 -15.91,18.84 -21.91,45.67 -16.85,75.54 9.66,60.93 59.23,103.48 120.5,103.48 30.56,0 55.33,-10.12 71.71,-29.3 16.48,-19.31 22.97,-46.31 18.25,-76.05"
           inkscape:connector-curvature="0" />
        <path
           id="path3044"
           style="fill:#293b82;fill-opacity:1;fill-rule:nonzero;stroke:none"
           d="m 8998.88,4128.98 -108.1,0 c -10.32,0 -19.98,-5.12 -25.77,-13.71 l -149.13,-219.58 -63.19,211.02 c -3.96,13.22 -16.11,22.27 -29.9,22.27 l -106.24,0 c -12.82,0 -21.87,-12.61 -17.71,-24.77 l 118.99,-349.35 -111.93,-157.95 c -8.79,-12.42 0.06,-29.53 15.28,-29.53 l 107.97,0 c 10.22,0 19.81,5 25.67,13.39 l 359.44,518.82 c 8.59,12.41 -0.26,29.39 -15.38,29.39"
           inkscape:connector-curvature="0" />
        <path
           id="path3046"
           style="fill:#459adb;fill-opacity:1;fill-rule:nonzero;stroke:none"
           d="m 10154.7,4320.91 -92.2,-586.4 c -1.8,-11.36 7,-21.64 18.5,-21.64 l 92.7,0 c 15.3,0 28.4,11.18 30.8,26.36 l 90.9,575.86 c 1.8,11.35 -7,21.64 -18.5,21.64 l -103.7,0 c -9.3,0 -17.1,-6.69 -18.5,-15.82"
           inkscape:connector-curvature="0" />
      </g>
    </g>
  </g>
</svg>
