<?xml version="1.0" encoding="utf-8"?>
<!-- Generator: Adobe Illustrator 17.0.2, SVG Export Plug-In . SVG Version: 6.00 Build 0)  -->
<!DOCTYPE svg PUBLIC "-//W3C//DTD SVG 1.1//EN" "http://www.w3.org/Graphics/SVG/1.1/DTD/svg11.dtd">
<svg version="1.1" id="Layer_1" xmlns="http://www.w3.org/2000/svg" xmlns:xlink="http://www.w3.org/1999/xlink" x="0px" y="0px"
	 width="100px" height="17.353px" viewBox="0 0 100 17.353" enable-background="new 0 0 100 17.353" xml:space="preserve">
<g>
	<g>
		<path fill="#262C31" d="M33,8.331c0-3.402,2.646-5.86,5.946-5.86c2.629,0,4.382,1.375,4.382,2.732
			c0,0.825-0.533,1.392-1.237,1.392c-0.773,0-1.306-0.481-1.306-1.22c0-0.223,0.052-0.447,0.12-0.584
			c-0.326-0.258-0.979-0.516-2.011-0.516c-2.2,0-3.884,1.684-3.884,4.038c0,2.268,1.581,4.073,3.969,4.073
			c1.323,0,2.406-0.584,3.248-1.495l1.289,1.34c-1.1,1.22-2.732,1.959-4.537,1.959C35.492,14.191,33,11.854,33,8.331z"/>
		<path fill="#262C31" d="M44.204,10.221c0-2.062,1.547-3.901,4.004-3.901c2.492,0,4.004,1.804,4.004,3.901
			c0,2.062-1.547,3.901-4.004,3.901C45.716,14.122,44.204,12.318,44.204,10.221z M50.287,10.221c0-1.375-0.859-2.337-2.079-2.337
			c-1.22,0-2.079,0.962-2.079,2.337s0.859,2.337,2.079,2.337C49.428,12.558,50.287,11.596,50.287,10.221z"/>
		<path fill="#262C31" d="M52.985,12.438h1.117V8.039h-1.117V6.458h2.921v1.186c0.584-0.636,1.409-1.323,2.526-1.323
			c0.808,0,1.409,0.309,1.787,0.808c0.103,0.137,0.172,0.275,0.241,0.43c0.704-0.687,1.547-1.237,2.509-1.237
			c1.048,0,1.77,0.378,2.148,1.083c0.206,0.378,0.309,0.859,0.309,1.409v3.626h1.117v1.547h-4.004V12.44h1.014V9.259
			c0-0.292-0.034-0.516-0.12-0.705c-0.155-0.361-0.464-0.533-0.894-0.533c-0.619,0-1.272,0.361-1.839,0.842v3.574h1.014v1.547
			h-3.918v-1.547h1.031V9.259c0-0.292-0.034-0.516-0.12-0.705c-0.155-0.361-0.447-0.533-0.894-0.533
			c-0.619,0-1.272,0.361-1.839,0.842v3.574h0.997v1.547h-3.987v-1.546H52.985z"/>
		<path fill="#262C31" d="M66.801,15.806h1.117V8.039h-1.117V6.458h2.921v0.859c0.584-0.55,1.22-0.997,2.234-0.997
			c1.959,0,3.437,1.598,3.437,3.866c0,2.182-1.564,3.935-3.557,3.935c-0.808,0-1.478-0.292-2.045-0.722v2.406h1.22v1.547h-4.21
			V15.806z M73.468,10.204c0-1.443-0.859-2.268-1.925-2.268c-0.704,0-1.254,0.309-1.753,0.756v3.231
			c0.481,0.344,1.066,0.584,1.753,0.584C72.54,12.507,73.468,11.699,73.468,10.204z"/>
		<path fill="#262C31" d="M76.217,10.221c0-2.062,1.547-3.901,4.004-3.901c2.492,0,4.004,1.804,4.004,3.901
			c0,2.062-1.547,3.901-4.004,3.901C77.73,14.122,76.217,12.318,76.217,10.221z M82.301,10.221c0-1.375-0.859-2.337-2.079-2.337
			s-2.079,0.962-2.079,2.337s0.859,2.337,2.079,2.337C81.441,12.558,82.301,11.596,82.301,10.221z"/>
		<path fill="#262C31" d="M90.514,9.139c-0.601,0-1.014-0.361-1.014-0.928c0-0.12,0-0.223,0.034-0.327
			c-0.309-0.12-0.687-0.189-1.066-0.189c-0.842,0-1.254,0.378-1.254,0.773c0,0.43,0.43,0.653,1.581,0.962
			c1.804,0.481,2.853,0.928,2.853,2.286c0,1.581-1.478,2.423-3.179,2.423c-1.151,0-2.389-0.412-2.887-0.911
			c-0.309-0.309-0.43-0.619-0.43-1.014c0-0.55,0.412-1.014,0.997-1.014c0.515,0,1.014,0.344,1.014,0.997
			c0,0.103-0.017,0.206-0.034,0.309c0.344,0.137,0.825,0.241,1.358,0.241c0.756,0,1.375-0.258,1.375-0.808
			c0-0.378-0.326-0.601-1.478-0.911c-2.079-0.55-2.956-1.048-2.956-2.337c0-1.169,0.962-2.389,3.076-2.389
			c0.911,0,2.011,0.344,2.526,0.859c0.275,0.275,0.412,0.601,0.412,0.962C91.442,8.726,91.064,9.139,90.514,9.139z"/>
		<path fill="#262C31" d="M94.484,10.857c0.258,1.169,1.22,1.684,2.475,1.684c0.911,0,1.856-0.292,2.732-0.79l-0.155,1.684
			c-0.79,0.464-1.753,0.687-2.853,0.687c-2.457,0-4.158-1.547-4.158-3.884c0-2.131,1.495-3.918,3.815-3.918
			c2.406,0,3.66,1.615,3.66,3.609c0,0.292-0.034,0.67-0.086,0.928H94.484z M94.467,9.551h3.66c-0.034-1.031-0.705-1.718-1.804-1.718
			C95.498,7.833,94.673,8.314,94.467,9.551z"/>
	</g>
	<path fill="#262C31" d="M16.155,0l-5.406,3.103L5.406,0L0,3.103v5.556l10.813,6.27l5.438-3.103l5.342,3.103L27,11.826V6.27
		L16.155,0z M1.216,3.775l4.191-2.399l4.191,2.399L5.406,6.206L1.216,3.775z M10.813,9.373L6.622,6.942l4.191-2.399l4.191,2.399
		L10.813,9.373z M16.155,6.238l-4.191-2.431l4.191-2.399l4.191,2.399L16.155,6.238z M21.594,9.373l-4.191-2.431l4.191-2.399
		l4.191,2.399L21.594,9.373z"/>
</g>
</svg>
