<?xml version="1.0" encoding="utf-8"?>
<!-- Generator: Adobe Illustrator 18.1.1, SVG Export Plug-In . SVG Version: 6.00 Build 0)  -->
<svg version="1.1" id="Layer_1" xmlns="http://www.w3.org/2000/svg" xmlns:xlink="http://www.w3.org/1999/xlink" x="0px" y="0px" width="170px" height="48px"
	 viewBox="-24.6 55.7 299 42.3" enable-background="new -24.6 55.7 299 42.3" xml:space="preserve">
<g>
	<rect x="-24.6" y="93.1" fill="#231F20" width="28.4" height="5"/>
	<g>
		<polygon fill="#231F20" points="-10.3,77.8 -16.7,64.2 -16.7,64.2 -24.6,64.2 -24.6,89.6 -18.6,89.6 -18.6,74.1 -12.1,87.3
			-12.1,87.4 -8.6,87.4 -2,74.1 -2,89.6 3.8,89.6 3.8,64.2 -3.9,64.2 		"/>
		<path fill="#231F20" d="M22.3,64.2h-5.6L5.7,89.6H12l2.3-5.4h10.3l2.3,5.3v0.1h6.2L22.3,64.2L22.3,64.2z M22.4,78.9h-5.9l3-6.8
			L22.4,78.9z"/>
		<path fill="#231F20" d="M55.8,72.6c0-2.9-0.9-5.1-2.5-6.4c-1.7-1.3-4.5-2-8.4-2h-9.6v25.4h5.8v-8h3.6l5.5,7.9v0.1h7.2l-6.4-9
			C54.2,79.2,55.8,76.6,55.8,72.6z M49.8,72.6c0,1.3-0.3,2.3-1,2.9c-0.7,0.6-2,0.9-3.8,0.9h-4v-7.2h4.1c1.8,0,3,0.2,3.7,0.7
			C49.5,70.4,49.8,71.3,49.8,72.6z"/>
		<path fill="#231F20" d="M75.7,64.2l-9.3,10.1V64.2h-5.8v25.4h5.8v-7.2l2.4-2.6l7.3,9.8v0.1h6.8l-0.1-0.2c-1.1-1.6-2.9-4-5.2-7.3
			c-2.4-3.3-3.9-5.4-4.7-6.6L83,64.3h-7.3V64.2z"/>
		<polygon fill="#231F20" points="91.9,79.3 103.2,79.3 103.2,74.3 91.9,74.3 91.9,69.4 104.5,69.4 104.5,64.2 86.1,64.2 86.1,89.6
			104.9,89.6 104.9,84.3 91.9,84.3 		"/>
		<polygon fill="#231F20" points="107.5,69.2 114.6,69.2 114.6,89.6 120.5,89.6 120.5,69.2 127.6,69.2 127.6,64.2 107.5,64.2 		"/>
		<path fill="#231F20" d="M148.2,66.4c-1.8-1.5-4.6-2.3-8.5-2.3h-9v25.4h5.8v-7h3.2c3.7,0,6.5-0.7,8.3-2.2s2.8-3.8,2.8-6.9
			C150.9,70.3,150,67.9,148.2,66.4z M144,76.3c-0.6,0.7-1.9,1.1-3.7,1.1h-3.6v-8.2h3.1c1.8,0,3.1,0.3,4,0.9c0.8,0.6,1.3,1.6,1.3,3
			C144.9,74.5,144.6,75.6,144,76.3z"/>
		<polygon fill="#231F20" points="159.5,64.2 153.6,64.2 153.6,89.6 170.2,89.6 170.2,84.2 159.5,84.2 		"/>
		<path fill="#231F20" d="M187.2,64.2h-5.6l-10.9,25.4h6.2l2.3-5.4h10.3l2.3,5.3v0.1h6.2L187.2,64.2L187.2,64.2z M187.4,78.9h-5.9
			l3-6.8L187.4,78.9z"/>
		<path fill="#231F20" d="M211.2,63.6c-3.7,0-6.9,1.3-9.4,3.8c-2.6,2.5-3.9,5.7-3.9,9.4s1.3,6.9,3.8,9.3c2.5,2.4,5.7,3.7,9.6,3.7
			c3.9,0,7.3-1.6,10.1-4.8l0.1-0.1l-3.8-3.9l-0.1,0.1c-1.7,2.1-3.9,3.2-6.6,3.2c-2,0-3.7-0.7-5-2.1c-1.4-1.4-2.1-3.2-2.1-5.5
			s0.7-4.1,2.2-5.5c1.5-1.3,3.2-2,5.3-2c2.6,0,4.8,1.1,6.5,3.3l0.1,0.1l3.6-4.1l0.1-0.1l-0.1-0.1C218.8,65.2,215.3,63.6,211.2,63.6z
			"/>
		<polygon fill="#231F20" points="230.9,79.3 242.1,79.3 242.1,74.3 230.9,74.3 230.9,69.4 243.4,69.4 243.4,64.2 225.1,64.2
			225.1,89.6 243.8,89.6 243.8,84.3 230.9,84.3 		"/>
		<path fill="#231F20" d="M263,80.4c3.1-1.2,4.7-3.8,4.7-7.8c0-2.9-0.9-5.1-2.5-6.4c-1.7-1.3-4.5-2-8.4-2h-9.6v25.4h5.8v-8h3.7
			l5.5,7.9v0.1h7.2L263,80.4z M261.8,72.6c0,1.3-0.3,2.3-1,2.9c-0.7,0.6-2,0.9-3.8,0.9h-4v-7.2h4.1c1.8,0,3,0.2,3.7,0.7
			C261.4,70.4,261.8,71.3,261.8,72.6z"/>
	</g>
	<path fill="#231F20" d="M270.1,64.6h-1v2.8h-0.5v-2.8h-1v-0.4h2.6v0.4H270.1z M274.3,67.4h-0.5v-2.7l0,0l-1.1,2.7h-0.3l-1.1-2.7
		l0,0v2.7h-0.5v-3.2h0.8l1,2.5l1-2.5h0.8v3.2H274.3z"/>
</g>
</svg>
