<?xml version="1.0" encoding="UTF-8" standalone="no"?>
<!-- Created with Inkscape (http://www.inkscape.org/) -->

<svg
   xmlns:dc="http://purl.org/dc/elements/1.1/"
   xmlns:cc="http://creativecommons.org/ns#"
   xmlns:rdf="http://www.w3.org/1999/02/22-rdf-syntax-ns#"
   xmlns:svg="http://www.w3.org/2000/svg"
   xmlns="http://www.w3.org/2000/svg"
   xmlns:sodipodi="http://sodipodi.sourceforge.net/DTD/sodipodi-0.dtd"
   xmlns:inkscape="http://www.inkscape.org/namespaces/inkscape"
   width="500"
   height="109.46546"
   id="svg3343"
   version="1.1"
   inkscape:version="0.48.4 r9939"
   sodipodi:docname="New document 15">
  <defs
     id="defs3345" />
  <sodipodi:namedview
     id="base"
     pagecolor="#ffffff"
     bordercolor="#666666"
     borderopacity="1.0"
     inkscape:pageopacity="0.0"
     inkscape:pageshadow="2"
     inkscape:zoom="0.35"
     inkscape:cx="118.26039"
     inkscape:cy="45.125498"
     inkscape:document-units="px"
     inkscape:current-layer="layer1"
     showgrid="false"
     fit-margin-top="0"
     fit-margin-left="0"
     fit-margin-right="0"
     fit-margin-bottom="0"
     inkscape:window-width="1920"
     inkscape:window-height="528"
     inkscape:window-x="0"
     inkscape:window-y="25"
     inkscape:window-maximized="0" />
  <metadata
     id="metadata3348">
    <rdf:RDF>
      <cc:Work
         rdf:about="">
        <dc:format>image/svg+xml</dc:format>
        <dc:type
           rdf:resource="http://purl.org/dc/dcmitype/StillImage" />
        <dc:title></dc:title>
      </cc:Work>
    </rdf:RDF>
  </metadata>
  <g
     inkscape:label="Layer 1"
     inkscape:groupmode="layer"
     id="layer1"
     transform="translate(-256.73961,-468.02222)">
    <g
       transform="matrix(1.5161253,0,0,-1.5161253,256.73969,577.48768)"
       inkscape:label="ink_ext_XXXXXX"
       id="g3273">
      <g
         transform="scale(0.1,0.1)"
         id="g3275">
        <path
           id="path3277"
           style="fill:#2e2d2d;fill-opacity:1;fill-rule:nonzero;stroke:none"
           d="m 841.832,273.699 c 5.34,-8.426 12.363,-15.117 21.039,-20.054 8.684,-4.993 18.484,-8.547 29.418,-10.665 10.899,-2.167 22.164,-3.246 33.75,-3.246 8.902,0 18.258,0.618 28.059,1.946 9.804,1.3 18.836,3.652 27.074,7.097 8.246,3.442 15.035,8.528 20.378,15.2 5.34,6.675 8.03,15.183 8.03,25.546 0,14.247 -5.59,25.016 -16.705,32.352 -11.152,7.316 -25.062,13.262 -41.781,17.793 -16.715,4.504 -34.883,8.621 -54.469,12.285 -19.605,3.652 -37.746,8.836 -54.477,15.527 -16.695,6.672 -30.628,16.047 -41.765,28.133 -11.125,12.063 -16.695,28.879 -16.695,50.461 0,16.817 3.886,31.25 11.671,43.321 7.801,12.082 17.829,21.882 30.094,29.445 12.235,7.547 26.063,13.152 41.426,16.805 15.379,3.664 30.644,5.507 45.777,5.507 19.617,0 37.66,-1.621 54.153,-4.859 16.476,-3.219 31.066,-8.836 43.761,-16.809 12.71,-7.98 22.83,-18.75 30.42,-32.343 7.57,-13.575 12.03,-30.52 13.34,-50.782 l -56.775,0 c -0.91,10.77 -3.793,19.735 -8.688,26.836 -4.926,7.118 -11.164,12.821 -18.73,17.176 -7.574,4.277 -15.934,7.41 -25.071,9.356 -9.125,1.953 -18.363,2.902 -27.722,2.902 -8.473,0 -17.051,-0.625 -25.727,-1.934 -8.672,-1.3 -16.597,-3.554 -23.73,-6.808 -7.141,-3.211 -12.914,-7.52 -17.379,-12.918 -4.449,-5.403 -6.684,-12.403 -6.684,-21.008 0,-9.504 3.449,-17.383 10.371,-23.621 6.895,-6.262 15.707,-11.438 26.391,-15.52 10.699,-4.113 22.73,-7.566 36.078,-10.363 13.387,-2.801 26.75,-5.699 40.109,-8.727 14.258,-3.031 28.172,-6.679 41.778,-10.988 13.569,-4.316 25.619,-10.019 36.079,-17.148 10.48,-7.11 18.95,-16.082 25.4,-26.848 6.46,-10.777 9.69,-24.148 9.69,-40.105 0,-20.282 -4.34,-37.071 -13.03,-50.45 -8.69,-13.371 -20.04,-24.179 -34.08,-32.343 -14.03,-8.196 -29.856,-13.914 -47.458,-17.137 -17.589,-3.242 -35.086,-4.848 -52.461,-4.848 -19.171,0 -37.421,1.926 -54.804,5.825 -17.379,3.867 -32.754,10.234 -46.106,19.082 -13.379,8.804 -24.066,20.476 -32.086,34.929 -8.023,14.453 -12.484,32.031 -13.382,52.715 l 56.824,0 c 0.422,-12.09 3.343,-22.324 8.695,-30.715"
           inkscape:connector-curvature="0" />
        <path
           id="path3279"
           style="fill:#2e2d2d;fill-opacity:1;fill-rule:nonzero;stroke:none"
           d="m 1135.89,198.965 56.8008,0 0,334.43 -56.8008,0 0,-334.43 z"
           inkscape:connector-curvature="0" />
        <path
           id="path3281"
           style="fill:#2e2d2d;fill-opacity:1;fill-rule:nonzero;stroke:none"
           d="m 1428.62,533.395 0,-48.512 -68.85,0 0,-207.637 c 0,-6.465 0.57,-11.648 1.66,-15.516 1.09,-3.91 3.23,-6.925 6.37,-9.093 3.11,-2.141 7.46,-3.543 13.02,-4.18 5.56,-0.644 12.82,-0.977 21.72,-0.977 l 26.08,0 0,-48.515 -43.45,0 c -14.72,0 -27.29,0.969 -37.76,2.91 -10.48,1.945 -18.95,5.508 -25.41,10.664 -6.47,5.195 -11.25,12.52 -14.36,22 -3.13,9.492 -4.69,22.004 -4.69,37.524 l 0,212.82 -58.79,0 0,48.512 58.79,0 0,100.257 56.82,0 0,-100.257 68.85,0"
           inkscape:connector-curvature="0" />
        <path
           id="path3283"
           style="fill:#2e2d2d;fill-opacity:1;fill-rule:nonzero;stroke:none"
           d="m 1722.32,435.07 c -5.11,11.629 -12.02,21.668 -20.71,30.067 -8.69,8.429 -18.96,15.097 -30.75,20.058 -11.79,4.961 -24.84,7.434 -39.09,7.434 -14.72,0 -27.98,-2.473 -39.76,-7.434 -11.82,-4.961 -21.95,-11.726 -30.41,-20.363 -8.46,-8.641 -15.16,-18.672 -20.05,-30.098 -4.89,-11.414 -7.8,-23.582 -8.68,-36.519 l 198.48,0 c -0.91,12.937 -3.91,25.203 -9.03,36.855 z m 13.7,-214.738 c -25.82,-18.984 -58.39,-28.469 -97.57,-28.469 -27.63,0 -51.57,4.297 -71.83,12.934 -20.29,8.609 -37.34,20.723 -51.13,36.211 -13.82,15.535 -24.17,34.07 -31.1,55.633 -6.9,21.582 -10.79,45.066 -11.69,70.527 0,25.422 4.01,48.699 12.03,69.844 8.03,21.125 19.27,39.465 33.77,54.992 14.45,15.516 31.63,27.574 51.46,36.215 19.82,8.617 41.52,12.933 65.14,12.933 30.77,0 56.25,-6.132 76.54,-18.425 20.27,-12.305 36.52,-27.922 48.78,-46.899 12.25,-18.973 20.72,-39.707 25.41,-62.098 4.66,-22.441 6.56,-43.769 5.68,-64.05 l -258.64,0 c -0.45,-14.66 1.32,-28.575 5.35,-41.723 3.99,-13.16 10.44,-24.805 19.36,-34.922 8.91,-10.164 20.28,-18.23 34.09,-24.258 13.79,-6.05 30.07,-9.043 48.77,-9.043 24.07,0 43.8,5.364 59.16,16.172 15.36,10.746 25.5,27.141 30.42,49.145 l 56.13,0 c -7.57,-37.524 -24.29,-65.766 -50.13,-84.719"
           inkscape:connector-curvature="0" />
        <path
           id="path3285"
           style="fill:#2e2d2d;fill-opacity:1;fill-rule:nonzero;stroke:none"
           d="m 2113.32,414.707 c -4.25,14.871 -10.73,28.106 -19.42,39.766 -8.68,11.648 -19.82,20.918 -33.41,27.824 -13.58,6.883 -29.51,10.332 -47.79,10.332 -19.14,0 -35.41,-3.664 -48.79,-10.996 -13.37,-7.336 -24.28,-16.945 -32.73,-28.774 -8.47,-11.875 -14.59,-25.359 -18.39,-40.425 -3.77,-15.102 -5.69,-30.411 -5.69,-45.95 0,-16.386 2.02,-32.207 6.05,-47.519 4,-15.332 10.33,-28.809 19.03,-40.438 8.68,-11.632 19.91,-21.015 33.73,-28.125 13.81,-7.129 30.53,-10.668 50.13,-10.668 19.61,0 35.99,3.657 49.14,10.989 13.14,7.324 23.73,17.011 31.74,29.101 8.04,12.078 13.8,25.852 17.36,41.406 3.57,15.516 5.35,31.465 5.35,47.872 0,15.515 -2.11,30.722 -6.31,45.605 z m -204.2,118.688 0,-45.297 1.32,0 c 9.38,18.547 24.08,32.031 44.14,40.453 20.05,8.418 42.1,12.601 66.16,12.601 26.74,0 50,-4.746 69.83,-14.238 19.83,-9.473 36.32,-22.309 49.44,-38.469 13.16,-16.187 23.07,-34.84 29.75,-55.965 6.71,-21.14 10.04,-43.542 10.04,-67.277 0,-23.719 -3.23,-46.14 -9.72,-67.273 -6.44,-21.121 -16.23,-39.563 -29.38,-55.301 -13.13,-15.734 -29.65,-28.145 -49.45,-37.188 -19.83,-9.054 -42.91,-13.578 -69.18,-13.578 -8.46,0 -17.95,0.864 -28.41,2.582 -10.47,1.715 -20.84,4.52 -31.07,8.407 -10.25,3.867 -19.96,9.152 -29.08,15.859 -9.13,6.672 -16.82,14.973 -23.07,24.883 l -1.32,0 0,-172.051 -56.81,0 0,461.852 56.81,0"
           inkscape:connector-curvature="0" />
        <path
           id="path3287"
           style="fill:#2e2d2d;fill-opacity:1;fill-rule:nonzero;stroke:none"
           d="m 2296.42,311.836 c 5.54,-15.754 13.22,-28.887 23.04,-39.453 9.81,-10.559 21.29,-18.645 34.44,-24.246 13.13,-5.61 27.05,-8.403 41.77,-8.403 14.68,0 28.61,2.793 41.77,8.403 13.15,5.601 24.59,13.687 34.4,24.246 9.79,10.566 17.47,23.699 23.08,39.453 5.53,15.742 8.33,33.75 8.33,54.031 0,20.266 -2.8,38.254 -8.33,54.016 -5.61,15.715 -13.29,28.996 -23.08,39.758 -9.81,10.769 -21.25,18.972 -34.4,24.597 -13.16,5.594 -27.09,8.391 -41.77,8.391 -14.72,0 -28.64,-2.797 -41.77,-8.391 -13.15,-5.625 -24.63,-13.828 -34.44,-24.597 -9.82,-10.762 -17.5,-24.043 -23.04,-39.758 -5.58,-15.762 -8.4,-33.75 -8.4,-54.016 0,-20.281 2.82,-38.289 8.4,-54.031 z m -57.84,122.898 c 7.16,21.36 17.82,39.883 32.08,55.657 14.26,15.714 31.85,28.105 52.85,37.187 20.9,9.039 44.94,13.574 72.16,13.574 27.61,0 51.78,-4.535 72.48,-13.574 20.77,-9.082 38.2,-21.473 52.49,-37.187 14.23,-15.774 24.92,-34.297 32.08,-55.657 7.13,-21.336 10.69,-44.304 10.69,-68.867 0,-24.578 -3.56,-47.437 -10.69,-68.582 -7.16,-21.125 -17.85,-39.558 -32.08,-55.312 -14.29,-15.743 -31.72,-28.028 -52.49,-36.875 -20.7,-8.809 -44.87,-13.235 -72.48,-13.235 -27.22,0 -51.26,4.426 -72.16,13.235 -21,8.847 -38.59,21.132 -52.85,36.875 -14.26,15.754 -24.92,34.187 -32.08,55.312 -7.13,21.145 -10.66,44.004 -10.66,68.582 0,24.563 3.53,47.531 10.66,68.867"
           inkscape:connector-curvature="0" />
        <path
           id="path3289"
           style="fill:#2e2d2d;fill-opacity:1;fill-rule:nonzero;stroke:none"
           d="m 2633.57,198.965 56.8281,0 0,334.43 -56.8281,0 0,-334.43 z"
           inkscape:connector-curvature="0" />
        <path
           id="path3291"
           style="fill:#2e2d2d;fill-opacity:1;fill-rule:nonzero;stroke:none"
           d="m 2832.07,533.395 0,-53.024 1.32,0 c 23.62,40.512 61.05,60.781 112.31,60.781 22.71,0 41.67,-3.039 56.77,-9.047 15.16,-6.05 27.44,-14.449 36.77,-25.226 9.37,-10.797 15.94,-23.625 19.73,-38.488 3.8,-14.883 5.67,-31.379 5.67,-49.485 l 0,-219.941 -56.79,0 0,226.418 c 0,20.691 -6.26,37.078 -18.73,49.148 -12.48,12.063 -29.62,18.098 -51.46,18.098 -17.37,0 -32.4,-2.559 -45.14,-7.746 -12.66,-5.195 -23.26,-12.528 -31.71,-21.992 -8.46,-9.5 -14.85,-20.606 -19.06,-33.313 -4.22,-12.73 -6.35,-26.637 -6.35,-41.734 l 0,-188.879 -56.8,0 0,334.43 53.47,0"
           inkscape:connector-curvature="0" />
        <path
           id="path3293"
           style="fill:#2e2d2d;fill-opacity:1;fill-rule:nonzero;stroke:none"
           d="m 3297.88,533.395 0,-48.512 -68.82,0 0,-207.637 c 0,-6.465 0.52,-11.648 1.65,-15.516 1.13,-3.91 3.24,-6.925 6.35,-9.093 3.11,-2.141 7.49,-3.543 13.05,-4.18 5.55,-0.644 12.81,-0.977 21.68,-0.977 l 26.09,0 0,-48.515 -43.45,0 c -14.68,0 -27.29,0.969 -37.76,2.91 -10.46,1.945 -18.95,5.508 -25.4,10.664 -6.44,5.195 -11.25,12.52 -14.35,22 -3.12,9.492 -4.67,22.004 -4.67,37.524 l 0,212.82 -58.84,0 0,48.512 58.84,0 0,100.257 56.81,0 0,-100.257 68.82,0"
           inkscape:connector-curvature="0" />
        <path
           id="path3295"
           style="fill:#f7952e;fill-opacity:1;fill-rule:nonzero;stroke:none"
           d="M 14.7305,405.195 67.1172,354.348 232.797,199.707 304.18,268.613 c 6.539,8.977 6.101,21.172 -1.367,29.676 l -65.211,57.191 0.23,0.04 -70.293,68.164 c -8.219,9.343 -8.019,23.242 0.688,32.273 L 357.367,638.629 271.43,722.008 67.3438,524.922 14.8203,474.199 C -4.91406,455.156 -4.9375,424.246 14.7305,405.195"
           inkscape:connector-curvature="0" />
        <path
           id="path3297"
           style="fill:#3e8ab4;fill-opacity:1;fill-rule:nonzero;stroke:none"
           d="m 578.863,316.824 -52.383,50.84 -165.683,154.672 -71.383,-68.945 c -6.543,-8.946 -6.109,-21.145 1.375,-29.668 l 65.203,-57.192 -0.234,-0.027 70.297,-68.164 c 8.23,-9.348 8.015,-23.231 -0.711,-32.285 L 236.227,83.3984 322.172,0 l 204.066,197.129 52.547,50.684 c 19.707,19.042 19.746,49.96 0.078,69.011"
           inkscape:connector-curvature="0" />
        <path
           id="path3299"
           style="fill:#2e2d2d;fill-opacity:1;fill-rule:nonzero;stroke:none"
           d="m 1197.39,601.625 c 0,-17.699 -14.83,-32.055 -33.1,-32.055 -18.27,0 -33.1,14.356 -33.1,32.055 0,17.676 14.83,32.027 33.1,32.027 18.27,0 33.1,-14.351 33.1,-32.027"
           inkscape:connector-curvature="0" />
        <path
           id="path3301"
           style="fill:#2e2d2d;fill-opacity:1;fill-rule:nonzero;stroke:none"
           d="m 2695.09,601.625 c 0,-17.699 -14.83,-32.055 -33.11,-32.055 -18.27,0 -33.08,14.356 -33.08,32.055 0,17.676 14.81,32.027 33.08,32.027 18.28,0 33.11,-14.351 33.11,-32.027"
           inkscape:connector-curvature="0" />
      </g>
    </g>
  </g>
</svg>
